<?xml version="1.0" encoding="UTF-8"?>
<svg version="1.1" xmlns="http://www.w3.org/2000/svg" width="512" height="512">
<path d="M0 0 C4.38895161 3.51507417 8.53998335 7.24799432 12.62890625 11.10546875 C13.26699219 11.69070312 13.90507812 12.2759375 14.5625 12.87890625 C28.15236728 25.77263334 36.5219519 44.06789034 40.62890625 62.10546875 C40.62890625 63.09546875 40.62890625 64.08546875 40.62890625 65.10546875 C42.0149984 65.09214508 42.0149984 65.09214508 43.42909241 65.07855225 C52.15353425 64.99827882 60.87785137 64.93743954 69.60257816 64.89822006 C74.08767055 64.87737875 78.57245682 64.8491247 83.05737305 64.80371094 C87.38865083 64.76012924 91.71963485 64.73630566 96.05111504 64.72595978 C97.70049092 64.71859045 99.34985141 64.70419977 100.99910164 64.68254852 C103.3162373 64.6533495 105.63217175 64.64951945 107.94946289 64.65136719 C109.26628555 64.64248474 110.58310822 64.63360229 111.93983459 64.62445068 C117.64140504 65.36787847 120.95715562 67.26610197 124.80153751 71.49593639 C127.80054497 76.25515997 127.17905804 81.76961029 127.13684082 87.2046051 C127.14620076 89.04838561 127.14620076 89.04838561 127.1557498 90.92941421 C127.16893504 94.33434796 127.16420261 97.73839791 127.15180492 101.14327776 C127.14275121 104.81833269 127.15672618 108.49331061 127.16772461 112.16835022 C127.18551476 119.36692057 127.1816666 126.56532411 127.17007405 133.763901 C127.16103702 139.61844708 127.1598169 145.47294643 127.16416931 151.32749748 C127.16478224 152.16109024 127.16539518 152.994683 127.16602668 153.85353614 C127.16730562 155.54710644 127.16860247 157.24067673 127.16991705 158.93424701 C127.18132557 174.81905542 127.16820745 190.70377154 127.14671558 206.58856481 C127.12886734 220.20109802 127.13192938 233.81349468 127.15039062 247.42602539 C127.17183226 263.24350241 127.1802027 279.06089834 127.16794157 294.87838787 C127.16666743 296.56783512 127.16540995 298.25728238 127.16416931 299.94672966 C127.16324366 301.19347284 127.16324366 301.19347284 127.16229931 302.46540274 C127.15885455 308.30535534 127.16465632 314.14525629 127.17408752 319.98520088 C127.18534655 327.11363491 127.18218687 334.24189292 127.16096455 341.37030698 C127.15050274 345.00336063 127.14624783 348.63612164 127.15956116 352.26917267 C127.17381447 356.21876031 127.15671425 360.16787626 127.13684082 364.1174469 C127.15022515 365.81710699 127.15022515 365.81710699 127.16387987 367.55110365 C127.00453095 383.9606363 120.56927416 397.7467474 109.375 409.46484375 C97.0095347 421.29440606 82.65608713 425.58158598 65.85256958 425.4931488 C63.99013023 425.50122711 63.99013023 425.50122711 62.09006584 425.50946862 C58.67376722 425.52123035 55.25796132 425.51971014 51.84168315 425.5123018 C48.14559257 425.50754757 44.44955294 425.52009981 40.753479 425.53031921 C33.52420724 425.54746868 26.29502253 425.54835524 19.06573571 425.54310631 C13.18652396 425.53905612 7.30733783 425.54051823 1.42812729 425.54585457 C0.58966126 425.54660299 -0.24880477 425.54735141 -1.11267886 425.54812251 C-2.81631549 425.54965408 -4.51995211 425.55119242 -6.22358872 425.55273748 C-22.18088789 425.56644863 -38.13813796 425.56103462 -54.09543599 425.54955227 C-68.67448685 425.5396217 -83.25341075 425.55255997 -97.83244203 425.57648646 C-112.82474076 425.60090464 -127.81698043 425.61047863 -142.80929863 425.60383373 C-151.21732343 425.60034751 -159.62525065 425.60253407 -168.03326035 425.62008476 C-175.19084256 425.63484081 -182.34825847 425.63539793 -189.50583754 425.61801385 C-193.15310857 425.60952928 -196.80008292 425.60729136 -200.4473381 425.62266541 C-204.41197208 425.63916951 -208.37615341 425.62430178 -212.34078979 425.60667419 C-213.47826782 425.6162792 -214.61574585 425.62588421 -215.7876929 425.63578027 C-231.74518042 425.4905077 -245.64029741 419.30156766 -257.15234375 408.390625 C-269.18708767 395.99568628 -273.84871533 381.4023068 -273.7587738 364.35795593 C-273.76415934 363.11955784 -273.76954488 361.88115975 -273.77509362 360.60523444 C-273.78685459 357.19822418 -273.78533564 353.79170804 -273.7779268 350.3847183 C-273.77317262 346.69898659 -273.78572436 343.01330597 -273.79594421 339.32759094 C-273.8130902 332.12072099 -273.81398146 324.91393837 -273.80873131 317.70705333 C-273.80468268 311.85018795 -273.80614136 305.9933483 -273.81147957 300.13648415 C-273.81222799 299.30154778 -273.81297641 298.46661141 -273.81374751 297.60637394 C-273.81527904 295.9100512 -273.81681738 294.21372846 -273.81836248 292.51740573 C-273.8320708 276.63280632 -273.82666023 260.74825626 -273.81517727 244.86365799 C-273.80523339 230.33161033 -273.81820843 215.79968978 -273.84211146 201.26766171 C-273.86648767 186.33528739 -273.8761148 171.40297232 -273.86945873 156.47057849 C-273.86596493 148.09128131 -273.86820994 139.71208204 -273.88570976 131.33279991 C-273.90041269 124.20466147 -273.90109161 117.07668999 -273.88363885 109.9485549 C-273.87511311 106.31227704 -273.87301764 102.67629771 -273.88829041 99.04003525 C-273.90463777 95.09922425 -273.8900223 91.15887641 -273.87229919 87.21806335 C-273.8819042 86.06797733 -273.89150921 84.91789132 -273.90140527 83.7329542 C-273.84406864 77.55692864 -273.59743991 73.75302875 -269.37109375 69.10546875 C-264.96050311 65.24736275 -260.47911701 64.61232863 -254.69165039 64.65136719 C-253.59284042 64.65049103 -253.59284042 64.65049103 -252.47183228 64.64959717 C-250.07447255 64.65236184 -247.67838979 64.68337426 -245.28125 64.71484375 C-243.60974303 64.72231196 -241.93822726 64.72800215 -240.26670837 64.73199463 C-235.8853197 64.74720543 -231.50446855 64.78644723 -227.12329102 64.83081055 C-222.645419 64.87186211 -218.16745942 64.89002667 -213.68945312 64.91015625 C-204.91642107 64.95294656 -196.14382444 65.02114177 -187.37109375 65.10546875 C-187.24094879 64.35917206 -187.11080383 63.61287537 -186.97671509 62.84396362 C-186.8021579 61.86017731 -186.62760071 60.87639099 -186.44775391 59.86279297 C-186.27635895 58.88962128 -186.10496399 57.91644958 -185.92837524 56.91378784 C-185.19264785 53.20622297 -184.10117686 49.75222086 -182.74609375 46.23046875 C-182.48812012 45.55483887 -182.23014648 44.87920898 -181.96435547 44.18310547 C-171.25281525 17.29366381 -148.44706403 -2.58886581 -122.37109375 -13.89453125 C-82.29322808 -30.12860342 -34.93375925 -26.28930645 0 0 Z M-140.4375 39.3203125 C-146.52364807 46.63185951 -151.50656366 55.78281829 -153.37109375 65.10546875 C-100.57109375 65.10546875 -47.77109375 65.10546875 6.62890625 65.10546875 C2.68501244 51.95915605 -2.71017252 42.76638998 -12.37109375 33.10546875 C-13.08136719 32.39519531 -13.79164063 31.68492188 -14.5234375 30.953125 C-32.68291746 13.84446485 -55.89893148 9.23902618 -79.9921875 9.75390625 C-104.07517952 10.74444801 -124.23178328 21.95048003 -140.4375 39.3203125 Z " fill="#F15848" transform="translate(329.37109375,54.89453125)"/>
<path d="M0 0 C4.38895161 3.51507417 8.53998335 7.24799432 12.62890625 11.10546875 C13.58603516 11.98332031 13.58603516 11.98332031 14.5625 12.87890625 C30.7398459 28.22756851 40.88095952 51.6907678 41.73547363 73.87167358 C41.7929932 76.96425132 41.81977075 80.05534834 41.83203125 83.1484375 C41.83773132 84.27566727 41.8434314 85.40289703 41.8493042 86.56428528 C41.85870171 88.93339106 41.86526714 91.30250961 41.86914062 93.67163086 C41.87890467 97.29238356 41.91000153 100.91258187 41.94140625 104.53320312 C41.94793188 106.84244457 41.95318407 109.15169004 41.95703125 111.4609375 C41.96937805 112.53917282 41.98172485 113.61740814 41.9944458 114.72831726 C41.97565599 121.06177734 41.59285118 125.85593538 37.12890625 130.75 C31.7216976 134.96030049 27.34996948 135.93409298 20.62890625 135.10546875 C15.32538345 132.40367412 11.53058327 128.8104998 9.62890625 123.10546875 C9.53381985 121.53292419 9.49356783 119.95675093 9.48706055 118.38134766 C9.47650887 116.94307114 9.47650887 116.94307114 9.46574402 115.47573853 C9.46157974 114.43831512 9.45741547 113.40089172 9.453125 112.33203125 C9.42990362 110.12238655 9.40578538 107.91275113 9.38085938 105.703125 C9.34593683 102.22991945 9.3165098 98.75705008 9.30297852 95.28369141 C9.41763665 77.27770766 9.41763665 77.27770766 4.62890625 60.10546875 C4.33185791 59.35330078 4.03480957 58.60113281 3.72875977 57.82617188 C-3.83823976 39.49399573 -18.4204096 25.90648873 -36.40234375 17.7265625 C-60.07413076 8.10271705 -85.96555455 8.25760799 -109.74609375 17.41796875 C-131.05842849 27.0288445 -144.77388641 43.1149916 -153.24609375 64.60546875 C-155.45485081 71.47715739 -155.53093764 78.04724115 -155.58203125 85.19921875 C-155.61008762 87.38542431 -155.63875199 89.57162214 -155.66796875 91.7578125 C-155.70927446 95.18766155 -155.74618488 98.6173642 -155.77246094 102.04736328 C-155.80008266 105.36911352 -155.84593695 108.69021792 -155.89453125 112.01171875 C-155.89778412 113.0337439 -155.90103699 114.05576904 -155.90438843 115.10876465 C-156.01056125 121.26898307 -156.5355655 125.99672553 -160.87109375 130.75 C-166.2783024 134.96030049 -170.65003052 135.93409298 -177.37109375 135.10546875 C-182.34210865 132.57306493 -185.86539942 129.11685741 -188.37109375 124.10546875 C-188.47681111 122.42865867 -188.51985663 120.74772075 -188.53222656 119.06762695 C-188.54183411 118.01505203 -188.55144165 116.96247711 -188.56134033 115.87800598 C-188.56771515 114.15948677 -188.56771515 114.15948677 -188.57421875 112.40625 C-188.57991882 111.22387253 -188.5856189 110.04149506 -188.5914917 108.82328796 C-188.60095949 106.30887754 -188.6074827 103.79445461 -188.61132812 101.2800293 C-188.62094 97.47877331 -188.65190738 93.67807992 -188.68359375 89.87695312 C-188.78972461 65.93304095 -188.78972461 65.93304095 -185.37109375 54.10546875 C-185.14663574 53.30761963 -184.92217773 52.50977051 -184.69091797 51.68774414 C-176.85206773 26.24862478 -157.57772292 4.59598796 -134.4140625 -8.12109375 C-92.06992242 -30.4085629 -38.80190202 -29.20026687 0 0 Z " fill="#393A3C" transform="translate(329.37109375,54.89453125)"/>
</svg>
