<svg data-v-423bf9ae="" xmlns="http://www.w3.org/2000/svg" viewBox="0 0 232.8176835460879 60" class="font"><!----><!----><defs data-v-423bf9ae=""><linearGradient data-v-423bf9ae="" gradientTransform="rotate(25)" id="cecc4656-8bb4-48d4-8c15-6e81b7ad7f06" x1="0%" y1="0%" x2="100%" y2="0%"><stop data-v-423bf9ae="" offset="0%" style="stop-color: rgb(66, 30, 86); stop-opacity: 1;"></stop><stop data-v-423bf9ae="" offset="100%" style="stop-color: rgb(188, 96, 131); stop-opacity: 1;"></stop></linearGradient></defs><g data-v-423bf9ae="" id="941c1b4e-887a-4fb3-8f62-269cea9154bb" fill="url(#cecc4656-8bb4-48d4-8c15-6e81b7ad7f06)" transform="matrix(5.524862053113338,0,0,5.524862053113338,6.187842859347342,-19.337017662733842)"><path d="M7 12.73L6.45 10.83L3.88 10.83Q3.59 11.74 3.26 12.40Q2.93 13.06 2.52 13.50Q2.12 13.94 1.64 14.15Q1.16 14.36 0.56 14.36L0.56 14.36Q0.23 14.36-0.07 14.30Q-0.38 14.25-0.61 14.14Q-0.84 14.04-0.98 13.90Q-1.12 13.76-1.12 13.60L-1.12 13.60Q-1.12 13.47-1.08 13.35Q-1.05 13.22-0.98 13.11Q-0.91 13.01-0.81 12.94Q-0.71 12.88-0.59 12.88L-0.59 12.88Q-0.48 12.88-0.40 13.03Q-0.31 13.18-0.19 13.36Q-0.06 13.54 0.14 13.69Q0.33 13.84 0.68 13.84L0.68 13.84Q1.04 13.84 1.36 13.67Q1.68 13.50 1.98 13.14Q2.28 12.77 2.55 12.20Q2.82 11.63 3.08 10.83L3.08 10.83L1.47 10.83L1.47 10.23L3.26 10.23Q3.49 9.47 3.70 8.69Q3.92 7.91 4.11 7.19Q4.30 6.47 4.45 5.85Q4.60 5.22 4.70 4.76L4.70 4.76Q4.57 4.38 4.33 4.25Q4.09 4.12 3.70 4.12L3.70 4.12Q3.33 4.12 2.94 4.23Q2.54 4.34 2.22 4.55Q1.90 4.76 1.69 5.06Q1.48 5.37 1.48 5.74L1.48 5.74Q1.48 5.96 1.54 6.09Q1.60 6.22 1.68 6.29Q1.76 6.35 1.83 6.37Q1.91 6.38 1.95 6.38L1.95 6.38Q2.11 6.38 2.23 6.33Q2.34 6.27 2.42 6.20Q2.51 6.14 2.59 6.08Q2.67 6.02 2.78 6.02L2.78 6.02Q2.85 6.02 2.94 6.06Q3.04 6.10 3.11 6.18Q3.19 6.26 3.25 6.40Q3.30 6.53 3.30 6.72L3.30 6.72Q3.30 6.99 3.20 7.19Q3.09 7.39 2.92 7.52Q2.75 7.66 2.54 7.72Q2.32 7.79 2.11 7.79L2.11 7.79Q1.78 7.79 1.52 7.67Q1.26 7.55 1.07 7.34Q0.89 7.14 0.79 6.86Q0.70 6.59 0.70 6.29L0.70 6.29Q0.70 5.84 0.85 5.46Q1.00 5.08 1.26 4.77Q1.53 4.46 1.89 4.22Q2.26 3.99 2.68 3.82Q3.10 3.66 3.55 3.58Q4.01 3.50 4.48 3.50L4.48 3.50Q5.13 3.50 5.59 3.61Q6.04 3.71 6.35 3.92Q6.66 4.13 6.85 4.45Q7.03 4.76 7.16 5.18L7.16 5.18L8.63 10.23L10.11 10.23L10.11 10.83L8.79 10.83L9.32 12.63Q9.35 12.73 9.38 12.82Q9.41 12.91 9.44 12.97Q9.48 13.04 9.54 13.08Q9.60 13.12 9.69 13.12L9.69 13.12Q9.88 13.12 10.04 13.05Q10.21 12.99 10.33 12.92L10.33 12.92L10.45 13.17Q10.32 13.26 10.13 13.37Q9.95 13.49 9.70 13.59Q9.46 13.69 9.17 13.76Q8.87 13.83 8.54 13.83L8.54 13.83Q8.07 13.83 7.79 13.71Q7.51 13.60 7.35 13.43Q7.18 13.25 7.11 13.06Q7.04 12.87 7 12.73L7 12.73ZM6.29 10.23L5.13 6.21Q4.85 7.36 4.58 8.36Q4.32 9.37 4.06 10.23L4.06 10.23L6.29 10.23ZM13.48 8.07L13.48 8.07Q13.74 7.67 14.03 7.35L14.03 7.35Q14.16 7.21 14.30 7.08Q14.44 6.95 14.60 6.85Q14.75 6.75 14.92 6.69Q15.08 6.62 15.24 6.62L15.24 6.62Q15.59 6.62 15.79 6.83Q15.99 7.04 15.99 7.42L15.99 7.42Q15.99 7.65 15.95 7.86Q15.91 8.08 15.80 8.39L15.80 8.39L15.61 8.39Q15.57 8.18 15.42 8.04Q15.27 7.90 14.98 7.90L14.98 7.90Q14.77 7.90 14.57 7.97Q14.36 8.05 14.17 8.17Q13.97 8.29 13.80 8.42Q13.62 8.56 13.48 8.68L13.48 8.68L13.48 13.12Q13.48 13.21 13.45 13.33Q13.43 13.45 13.32 13.56Q13.21 13.67 13.01 13.75Q12.80 13.83 12.43 13.83L12.43 13.83Q12.07 13.83 11.86 13.74Q11.66 13.66 11.55 13.54Q11.44 13.43 11.41 13.30Q11.38 13.18 11.38 13.10L11.38 13.10L11.38 7.83Q11.38 7.63 11.29 7.48Q11.20 7.33 10.98 7.33L10.98 7.33Q10.86 7.33 10.78 7.38Q10.70 7.42 10.60 7.49L10.60 7.49L10.46 7.32Q10.62 7.19 10.81 7.06Q11.01 6.94 11.23 6.84Q11.46 6.75 11.72 6.69Q11.98 6.62 12.26 6.62L12.26 6.62Q12.56 6.62 12.77 6.70Q12.97 6.78 13.11 6.91Q13.24 7.03 13.32 7.19Q13.39 7.35 13.43 7.51Q13.47 7.67 13.47 7.82Q13.48 7.96 13.48 8.07ZM19.80 11.85L19.80 10.18Q19.80 10.01 19.69 9.92Q19.58 9.83 19.41 9.83L19.41 9.83Q19.17 9.83 18.95 9.94Q18.74 10.05 18.57 10.26Q18.41 10.47 18.31 10.78Q18.22 11.09 18.22 11.50L18.22 11.50Q18.22 11.90 18.28 12.16Q18.33 12.42 18.43 12.57Q18.53 12.73 18.66 12.79Q18.79 12.85 18.94 12.85L18.94 12.85Q19.11 12.85 19.27 12.76Q19.43 12.67 19.54 12.52Q19.66 12.38 19.73 12.20Q19.80 12.02 19.80 11.85L19.80 11.85ZM18.71 7.18L18.71 7.18Q18.48 7.18 18.28 7.24Q18.08 7.29 17.94 7.38Q17.79 7.46 17.71 7.56Q17.63 7.66 17.63 7.75L17.63 7.75Q17.63 7.85 17.74 7.89Q17.84 7.94 17.97 7.99Q18.10 8.05 18.21 8.16Q18.31 8.26 18.31 8.48L18.31 8.48Q18.31 8.63 18.26 8.75Q18.20 8.87 18.10 8.96Q18.00 9.05 17.87 9.10Q17.73 9.15 17.59 9.15L17.59 9.15Q17.21 9.15 16.97 8.89Q16.73 8.63 16.73 8.20L16.73 8.20Q16.73 7.79 16.95 7.49Q17.17 7.19 17.52 7Q17.88 6.81 18.32 6.72Q18.76 6.62 19.21 6.62L19.21 6.62Q19.74 6.62 20.23 6.74Q20.71 6.86 21.09 7.11Q21.46 7.36 21.68 7.75Q21.90 8.14 21.90 8.70L21.90 8.70L21.90 12.56Q21.90 12.62 21.91 12.69Q21.92 12.77 21.94 12.83Q21.97 12.89 22.03 12.93Q22.08 12.97 22.18 12.97L22.18 12.97Q22.31 12.97 22.41 12.88Q22.52 12.79 22.60 12.69L22.60 12.69L22.77 12.84Q22.67 12.98 22.52 13.15Q22.38 13.32 22.18 13.47Q21.97 13.62 21.70 13.73Q21.42 13.83 21.08 13.83L21.08 13.83Q20.64 13.83 20.31 13.57Q19.97 13.32 19.87 12.78L19.87 12.78Q19.65 13.08 19.42 13.28Q19.18 13.47 18.94 13.60Q18.69 13.72 18.44 13.77Q18.19 13.83 17.94 13.83L17.94 13.83Q17.61 13.83 17.30 13.73Q16.99 13.62 16.75 13.40Q16.51 13.18 16.36 12.82Q16.21 12.47 16.21 11.96L16.21 11.96Q16.21 11.33 16.46 10.94Q16.71 10.54 17.11 10.27Q17.51 10.00 18.02 9.81Q18.53 9.62 19.06 9.41L19.06 9.41Q19.46 9.25 19.64 8.94Q19.82 8.63 19.82 8.30L19.82 8.30Q19.82 7.79 19.52 7.49Q19.22 7.18 18.71 7.18ZM26.77 11.85L26.77 10.18Q26.77 10.01 26.66 9.92Q26.55 9.83 26.38 9.83L26.38 9.83Q26.14 9.83 25.93 9.94Q25.71 10.05 25.55 10.26Q25.38 10.47 25.29 10.78Q25.19 11.09 25.19 11.50L25.19 11.50Q25.19 11.90 25.25 12.16Q25.31 12.42 25.41 12.57Q25.50 12.73 25.63 12.79Q25.76 12.85 25.91 12.85L25.91 12.85Q26.09 12.85 26.24 12.76Q26.40 12.67 26.52 12.52Q26.63 12.38 26.70 12.20Q26.77 12.02 26.77 11.85L26.77 11.85ZM25.68 7.18L25.68 7.18Q25.45 7.18 25.25 7.24Q25.05 7.29 24.91 7.38Q24.77 7.46 24.68 7.56Q24.60 7.66 24.60 7.75L24.60 7.75Q24.60 7.85 24.71 7.89Q24.81 7.94 24.94 7.99Q25.07 8.05 25.18 8.16Q25.29 8.26 25.29 8.48L25.29 8.48Q25.29 8.63 25.23 8.75Q25.17 8.87 25.07 8.96Q24.97 9.05 24.84 9.10Q24.71 9.15 24.56 9.15L24.56 9.15Q24.18 9.15 23.94 8.89Q23.71 8.63 23.71 8.20L23.71 8.20Q23.71 7.79 23.93 7.49Q24.14 7.19 24.50 7Q24.85 6.81 25.29 6.72Q25.74 6.62 26.18 6.62L26.18 6.62Q26.71 6.62 27.20 6.74Q27.69 6.86 28.06 7.11Q28.43 7.36 28.65 7.75Q28.88 8.14 28.88 8.70L28.88 8.70L28.88 12.56Q28.88 12.62 28.88 12.69Q28.89 12.77 28.92 12.83Q28.94 12.89 29.00 12.93Q29.05 12.97 29.16 12.97L29.16 12.97Q29.28 12.97 29.38 12.88Q29.49 12.79 29.57 12.69L29.57 12.69L29.74 12.84Q29.64 12.98 29.50 13.15Q29.35 13.32 29.15 13.47Q28.94 13.62 28.67 13.73Q28.40 13.83 28.05 13.83L28.05 13.83Q27.62 13.83 27.28 13.57Q26.95 13.32 26.84 12.78L26.84 12.78Q26.63 13.08 26.39 13.28Q26.15 13.47 25.91 13.60Q25.66 13.72 25.41 13.77Q25.16 13.83 24.91 13.83L24.91 13.83Q24.58 13.83 24.27 13.73Q23.97 13.62 23.72 13.40Q23.48 13.18 23.33 12.82Q23.19 12.47 23.19 11.96L23.19 11.96Q23.19 11.33 23.43 10.94Q23.68 10.54 24.08 10.27Q24.48 10.00 24.99 9.81Q25.50 9.62 26.03 9.41L26.03 9.41Q26.43 9.25 26.61 8.94Q26.79 8.63 26.79 8.30L26.79 8.30Q26.79 7.79 26.49 7.49Q26.20 7.18 25.68 7.18ZM36.50 8.54L36.50 13.12Q36.50 13.21 36.48 13.33Q36.45 13.45 36.34 13.56Q36.24 13.67 36.03 13.75Q35.81 13.83 35.45 13.83L35.45 13.83Q35.09 13.83 34.88 13.74Q34.67 13.66 34.57 13.54Q34.46 13.43 34.43 13.30Q34.41 13.18 34.41 13.10L34.41 13.10L34.41 8.27Q34.41 8.18 34.38 8.08Q34.35 7.98 34.30 7.90Q34.24 7.81 34.16 7.76Q34.08 7.71 33.97 7.71L33.97 7.71Q33.78 7.71 33.61 7.82Q33.43 7.92 33.27 8.06Q33.12 8.20 33.01 8.33Q32.89 8.47 32.85 8.54L32.85 8.54L32.85 13.12Q32.85 13.21 32.82 13.33Q32.79 13.45 32.69 13.56Q32.58 13.67 32.37 13.75Q32.16 13.83 31.80 13.83L31.80 13.83Q31.44 13.83 31.23 13.74Q31.02 13.66 30.91 13.54Q30.80 13.43 30.78 13.30Q30.75 13.18 30.75 13.10L30.75 13.10L30.75 7.83Q30.75 7.63 30.66 7.48Q30.56 7.33 30.34 7.33L30.34 7.33Q30.23 7.33 30.15 7.38Q30.06 7.42 29.97 7.49L29.97 7.49L29.83 7.32Q29.98 7.19 30.18 7.06Q30.37 6.94 30.60 6.84Q30.82 6.75 31.08 6.69Q31.34 6.62 31.63 6.62L31.63 6.62Q32.07 6.62 32.32 6.77Q32.57 6.92 32.68 7.12Q32.80 7.33 32.82 7.55Q32.85 7.77 32.85 7.92L32.85 7.92Q33.17 7.56 33.54 7.27L33.54 7.27Q33.69 7.15 33.87 7.03Q34.05 6.92 34.24 6.83Q34.43 6.73 34.64 6.68Q34.84 6.62 35.05 6.62L35.05 6.62Q35.44 6.62 35.72 6.77Q36.00 6.91 36.18 7.11Q36.35 7.31 36.43 7.54Q36.50 7.76 36.50 7.92L36.50 7.92Q36.83 7.56 37.19 7.27L37.19 7.27Q37.34 7.15 37.52 7.03Q37.70 6.92 37.90 6.83Q38.09 6.73 38.29 6.68Q38.49 6.62 38.70 6.62L38.70 6.62Q39.09 6.62 39.38 6.77Q39.66 6.92 39.83 7.16Q40.00 7.40 40.08 7.70Q40.15 8.00 40.15 8.30L40.15 8.30L40.15 12.53Q40.15 12.59 40.16 12.66Q40.17 12.74 40.20 12.80Q40.22 12.87 40.28 12.91Q40.34 12.95 40.43 12.95L40.43 12.95Q40.56 12.95 40.67 12.85Q40.77 12.76 40.86 12.67L40.86 12.67L41.02 12.81Q40.93 12.95 40.77 13.13Q40.61 13.30 40.40 13.46Q40.18 13.62 39.90 13.72Q39.61 13.83 39.26 13.83L39.26 13.83Q38.96 13.83 38.74 13.75Q38.51 13.67 38.36 13.54Q38.21 13.41 38.13 13.22Q38.06 13.04 38.06 12.84L38.06 12.84L38.06 8.27Q38.06 8.18 38.03 8.08Q38.00 7.98 37.95 7.90Q37.90 7.81 37.82 7.76Q37.73 7.71 37.63 7.71L37.63 7.71Q37.44 7.71 37.26 7.82Q37.08 7.92 36.92 8.06Q36.77 8.20 36.66 8.33Q36.55 8.47 36.50 8.54L36.50 8.54Z"></path></g><!----><!----></svg>