
        <svg xmlns="http://www.w3.org/2000/svg" xmlns:xlink="http://www.w3.org/1999/xlink" version="1.1" width="3163.279998693624" 
        height="777.4530302601939" viewBox="0 0 3163.279998693624 777.4530302601939">
			
			<g transform="scale(8.163999934681186) translate(10, 10)">
				<defs id="SvgjsDefs2644"></defs><g id="SvgjsG2645" featureKey="symbolFeature-0" transform="matrix(0.9614912064455339,0,0,0.9614912064455339,0,-10.298336009804173)" fill="#ffb400"><g xmlns="http://www.w3.org/2000/svg"><path fill-rule="evenodd" clip-rule="evenodd" d="M65.083,49.681l-0.556,0.416c-0.566,0.374-1.23,0.571-1.9,0.571   c-0.167,0-0.332-0.013-0.499-0.036l-1.633-0.237c2.369,3.233,4.956,6.788,10.246,5.094C69.466,53.552,67.158,51.699,65.083,49.681z   "></path><path fill-rule="evenodd" clip-rule="evenodd" d="M73.758,43.181l-3.636,2.725c5.673,3.005,13.55,6,16.937-0.313   c-4.947-0.597-10.012-1.88-14.016-3.495L73.758,43.181z"></path><path fill-rule="evenodd" clip-rule="evenodd" d="M65.571,49.317c3.728,3.2,8.471,6.568,13.242,2.633   c-3.066-1.652-6.624-3.445-9.462-5.468L65.571,49.317z"></path><path fill-rule="evenodd" clip-rule="evenodd" d="M100,14.871c-9.914,5.942-22.043,11.926-36.357,14.526   c-0.597,6.2-2.972,10.72-7.273,13.411l5.454,0.792l8.856-5.089l1.725,2.617c7.972,1.822,20.548,4.023,22.322-4.418   c-7.562,0.584-16.351,1.054-22.724-0.396c11.319-0.205,27.096,0.53,27.28-10.194c-7.643,2.616-16.524,5.387-25.88,5.563   C84.333,28.033,99.746,28.623,100,14.871z"></path><path fill-rule="evenodd" clip-rule="evenodd" d="M38.631,52.185l-0.025-0.622c0.008-1.129,0.569-2.183,1.501-2.82l7.54-5.165   c-4.783-1.959-7.905-6.073-9.479-12.195C23.625,31.03,10.712,26.998,0,22.663C2.383,36.21,17.515,33.24,28.879,35.152   c-9.27,1.276-18.472-0.086-26.43-1.487c1.845,10.565,17.316,7.397,28.53,5.846c-6.071,2.417-14.824,3.317-22.389,3.912   c3.46,9.108,18.432,2.669,25.441-0.191c-3.809,2.987-10.159,5.988-16.49,7.777c5.511,7.281,15.904-1.506,20.424-5.195   c-2.257,3.651-7.277,7.149-11.289,10.199C31.605,58.932,35.542,55.655,38.631,52.185z"></path><path fill-rule="evenodd" clip-rule="evenodd" d="M38.868,58.017l-0.195-4.797c-1.381,1.738-2.737,3.413-3.477,5.039   C36.647,58.485,37.844,58.362,38.868,58.017z"></path><path fill-rule="evenodd" clip-rule="evenodd" d="M50.632,30.014c0.282,0,0.563-0.004,0.852-0.014   c1.381-0.042,5.887-0.298,5.84-1.876c-0.042-1.257-2.818-1.522-5.14-1.522c-0.263,0-0.533,0.004-0.807,0.013   c-1.772,0.057-5.882,0.354-5.84,1.877C45.582,29.817,48.751,30.014,50.632,30.014z M51.413,27.767   c0.263-0.008,0.52-0.013,0.771-0.013c1.95,0,3.155,0.226,3.708,0.416c-0.645,0.265-2.171,0.611-4.445,0.68   c-0.275,0.008-0.549,0.014-0.814,0.014c-1.931,0-3.125-0.227-3.672-0.416C47.599,28.181,49.106,27.84,51.413,27.767z"></path><path fill-rule="evenodd" clip-rule="evenodd" d="M51.354,32.163c-2.729,0.406-4.604,2.939-4.199,5.661   c0.407,2.725,2.933,4.601,5.664,4.195c2.724-0.405,4.602-2.936,4.196-5.662C56.614,33.639,54.078,31.758,51.354,32.163z"></path><path fill-rule="evenodd" clip-rule="evenodd" d="M56.148,60.849l-0.12-12.637l6.295,1.085c0.101,0.014,0.201,0.021,0.304,0.021   c0.416,0,0.829-0.124,1.181-0.36l8.234-6.062l-1.909-2.825l-8.011,4.936l-9.261-1.618c-0.352-0.086-0.714-0.144-1.1-0.131   c-0.79,0.007-1.521,0.247-2.151,0.635L49.6,43.876l-0.17,0.116c-0.008,0.007-0.02,0.014-0.03,0.02l-8.53,5.843   c-0.566,0.389-0.909,1.03-0.915,1.717l0.237,9.894l3.53,0.036l0.438-8.789l3.457-2.367l0.101,10.584   c0.002,0.089,0.022,0.173,0.028,0.259l-4.908,7.495l-9.59,9.149l2.463,2.888l10.835-8.273c0.192-0.161,0.357-0.352,0.497-0.561   l3.446-5.257l-0.371,4.776l-5.926,11.745l3.49,1.978l7.311-11.635c0.189-0.335,0.305-0.709,0.332-1.094l0.891-11.474l-0.07-0.006   C56.143,60.896,56.148,60.873,56.148,60.849z"></path><path fill-rule="evenodd" clip-rule="evenodd" d="M57.588,49.971l0.048,4.75c0.642,0.647,1.292,1.2,1.292,1.2   c1.091,0.938,2.575,1.468,4.715,1.295c-1.191-2.467-2.745-4.557-4.018-6.949L57.588,49.971z"></path><path fill-rule="evenodd" clip-rule="evenodd" d="M45.5,53.427l-0.334,4.782c0.36-0.173,0.684-0.371,0.977-0.595l-0.045-4.596   L45.5,53.427z"></path></g></g><g id="SvgjsG2646" featureKey="nameFeature-0" transform="matrix(2.507647544016279,0,0,2.507647544016279,115.69908078808623,-25.076475440162792)" fill="#f6f6f6"><path d="M16.28 40 l-2.2 -8.84 l-9.76 0 l-2.2 8.84 l-2 0 l8.28 -30 l1.72 0 l8.24 30 l-2.08 0 z M9.32 11.879999999999999 l-4.52 17.36 l8.76 0 z M35.12 40 l-6.6 -12.44 l-6.12 0 l0 12.44 l-1.96 0 l0 -30 l6.8 0 c1.5733 0 2.92 0.23332 4.04 0.7 s2.04 1.1 2.76 1.9 s1.2533 1.7267 1.6 2.78 s0.52 2.1533 0.52 3.3 c0 1.9467 -0.5 3.7 -1.5 5.26 s-2.3133 2.7 -3.94 3.42 l7.04 12.64 l-2.64 0 z M26.959999999999997 11.84 l-4.56 -0.000039062 l0 13.68 l4.84 0 c1.36 0 2.48 -0.20668 3.36 -0.62 s1.5667 -0.94664 2.06 -1.6 s0.84 -1.4 1.04 -2.24 s0.3 -1.7 0.3 -2.58 c0 -0.93332 -0.16 -1.8 -0.48 -2.6 s-0.78 -1.5 -1.38 -2.1 s-1.3333 -1.0733 -2.2 -1.42 s-1.86 -0.52 -2.98 -0.52 z M55.64 40 l-2.2 -8.84 l-9.76 0 l-2.2 8.84 l-2 0 l8.28 -30 l1.72 0 l8.24 30 l-2.08 0 z M48.68 11.879999999999999 l-4.52 17.36 l8.76 0 z M75.91999999999999 40 l-2.2 -8.84 l-9.76 0 l-2.2 8.84 l-2 0 l8.28 -30 l1.72 0 l8.24 30 l-2.08 0 z M68.96 11.879999999999999 l-4.52 17.36 l8.76 0 z M98.44 40 l0 -25.44 l-7.24 17.32 l-2.24 -0.04 l-7.08 -17.32 l0 25.48 l-1.96 0 l0 -30 l2.08 0 l8.12 19.52 l8.16 -19.52 l2.12 0 l0 30 l-1.96 0 z"></path></g>
			</g>
		</svg>
	